<svg width="20" height="22" viewBox="0 0 20 22" fill="none" xmlns="http://www.w3.org/2000/svg">
<path d="M10.755 0C11.551 0 12.2718 0.462 12.6698 1.144C12.8634 1.474 12.9925 1.881 12.9603 2.31C12.9387 2.64 13.0356 2.97 13.2077 3.278C13.7563 4.213 14.9719 4.565 15.9185 4.037C16.9835 3.399 18.3282 3.784 18.9414 4.873L19.6621 6.171C20.2861 7.26 19.9418 8.657 18.8661 9.284C17.9517 9.845 17.629 11.088 18.1776 12.034C18.3497 12.331 18.5434 12.584 18.8446 12.738C19.2211 12.947 19.5115 13.277 19.7159 13.607C20.114 14.289 20.0817 15.125 19.6944 15.862L18.9414 17.182C18.5434 17.886 17.8011 18.326 17.0373 18.326C16.6608 18.326 16.2413 18.216 15.897 17.996C15.6173 17.809 15.2946 17.743 14.9504 17.743C13.8854 17.743 12.9925 18.656 12.9603 19.745C12.9603 21.01 11.9706 22 10.7335 22H9.27045C8.02258 22 7.0329 21.01 7.0329 19.745C7.01138 18.656 6.11852 17.743 5.05353 17.743C4.69853 17.743 4.37581 17.809 4.10687 17.996C3.76263 18.216 3.33234 18.326 2.96658 18.326C2.19205 18.326 1.44978 17.886 1.05176 17.182L0.309495 15.862C-0.088531 15.147 -0.110046 14.289 0.28798 13.607C0.460099 13.277 0.782822 12.947 1.14858 12.738C1.44978 12.584 1.64342 12.331 1.82629 12.034C2.36417 11.088 2.04144 9.845 1.12706 9.284C0.0620733 8.657 -0.282165 7.26 0.331009 6.171L1.05176 4.873C1.67569 3.784 3.00961 3.399 4.08536 4.037C5.02126 4.565 6.23685 4.213 6.78548 3.278C6.9576 2.97 7.05441 2.64 7.0329 2.31C7.01138 1.881 7.12972 1.474 7.33411 1.144C7.73213 0.462 8.45288 0.022 9.23818 0H10.755ZM10.0127 7.898C8.32379 7.898 6.9576 9.284 6.9576 11.011C6.9576 12.738 8.32379 14.113 10.0127 14.113C11.7016 14.113 13.0356 12.738 13.0356 11.011C13.0356 9.284 11.7016 7.898 10.0127 7.898Z" fill="#406491" fill-opacity="0.4"/>
</svg>
